# xmcd CD database file
# Copyright (C) 1993-1998 Ti Kan
#
# Track frame offsets:
#	150
#	17597
#	43312
#	60580
#	84325
#	104695
#	113977
#	129132
#	143290
#	154860
#
# Disc length: 2250 seconds
#
# Revision: 1
# Processed by: cddbd v1.4b41PL1 Copyright (c) Steve Scherf et al.
# Submitted via: CDValet v3.31 - Copyright (c) 1997 Greg Leichner
#
DISCID=7908c80a
DTITLE=The Fried Brothers Band - The Fried Brothers Band
DYEAR=1900
DGENRE=
TTITLE0=California Girls
TTITLE1=Church Bells
TTITLE2=Slow Down
TTITLE3=Hot Summer Morning
TTITLE4=Hot Babies
TTITLE5=No More Slow Songs
TTITLE6=Four Roses
TTITLE7=Not Feelin' Lonesome
TTITLE8=Bustin Some Heads
TTITLE9=Too Much Fun (Still Ain't Enough)
EXTD=
EXTT0=
EXTT1=
EXTT2=
EXTT3=
EXTT4=
EXTT5=
EXTT6=
EXTT7=
EXTT8=
EXTT9=
PLAYORDER=
